<?xml version="1.0" encoding="UTF-8"?>
<svg version="1.1" xmlns="http://www.w3.org/2000/svg" width="61" height="73">
<path d="M0 0 C20.13 0 40.26 0 61 0 C61 24.09 61 48.18 61 73 C40.87 73 20.74 73 0 73 C0 48.91 0 24.82 0 0 Z " fill="#0275D8" transform="translate(0,0)"/>
<path d="M0 0 C20.13 0 40.26 0 61 0 C61 24.09 61 48.18 61 73 C40.87 73 20.74 73 0 73 C0 48.91 0 24.82 0 0 Z M2.75 10.4375 C0.51691678 14.98341942 0.01165584 18.03564538 1 23 C2.19873278 26.15118384 3.525138 29.17345347 5.00390625 32.203125 C6.5649361 36.58625196 5.26754566 39.61189106 3.4375 43.6875 C1.62604717 48.44594326 1.12801908 52.96668441 2 58 C3.60276346 61.35288313 3.60276346 61.35288313 7 63 C10.70663772 63.39044639 14.28901188 63.29245966 18 63 C17.80664062 62.3709375 17.61328125 61.741875 17.4140625 61.09375 C15.7907875 55.75783615 14.30539435 50.42240732 13 45 C13.4846875 45.43570313 13.969375 45.87140625 14.46875 46.3203125 C29.25023795 59.53965211 29.25023795 59.53965211 47.9296875 64.2890625 C51.32709958 63.81470685 53.44089215 62.18460426 56 60 C58.25071511 53.24785467 57.53906104 47.53667898 54.4375 41.1875 C53.96183594 40.31480469 53.48617187 39.44210938 52.99609375 38.54296875 C51.80263452 35.49613755 52.02890668 34.08524439 53 31 C53.515625 29.906875 54.03125 28.81375 54.5625 27.6875 C56.58533751 22.49848205 57.00233595 18.42670808 54.8125 13.125 C52.61553867 10.54925224 51.28000911 9.82000228 48 9 C45.6679198 8.92353835 43.33154122 8.90856701 41 9 C41.28875 9.79664063 41.5775 10.59328125 41.875 11.4140625 C42.24625 12.47367188 42.6175 13.53328125 43 14.625 C43.37125 15.66914063 43.7425 16.71328125 44.125 17.7890625 C45.00483564 21.01774506 45.15988262 23.67244294 45 27 C44.39414062 26.34773438 43.78828125 25.69546875 43.1640625 25.0234375 C37.56541607 19.18361861 32.18705148 14.70984088 25 11 C23.88625 10.38125 22.7725 9.7625 21.625 9.125 C15.76636561 7.30680312 7.51296288 5.53845246 2.75 10.4375 Z " fill="#FDFDFC" transform="translate(0,0)"/>
<path d="M0 0 C4.85518213 1.74134624 7.12463525 5.72133466 9.4296875 10.1171875 C12.26349174 16.2402288 13.34168755 20.99396617 13.2109375 27.79296875 C12.2209375 26.94734375 11.2309375 26.10171875 10.2109375 25.23046875 C9.24027344 24.40869141 9.24027344 24.40869141 8.25 23.5703125 C6.94266105 22.43077376 5.66300106 21.25819236 4.421875 20.046875 C-1.2307545 14.64680979 -7.61849705 11.77706078 -14.7890625 8.79296875 C-10.96943611 2.22321136 -7.91612247 -1.32812021 0 0 Z " fill="#F7D909" transform="translate(32.7890625,0.20703125)"/>
<path d="M0 0 C8.58 0 17.16 0 26 0 C24.35 1.65 22.7 3.3 21 5 C20.01 6.485 20.01 6.485 19 8 C15.70618122 8.38176336 12.47848483 8.3759922 9.1640625 8.3984375 C5.84701799 8.73082263 5.84701799 8.73082263 3.62109375 11.28515625 C1.17453129 15.38241146 1.15035769 18.35482443 2 23 C3.19426402 26.15397914 4.52473098 29.17261956 6.00390625 32.203125 C7.56228278 36.57880184 6.23403263 39.69417251 4.5 43.8125 C2.91122353 47.8813178 2.38764224 51.65840688 2 56 C1.67 56 1.34 56 1 56 C-0.09080241 49.84394905 -0.12876053 43.83917721 -0.09765625 37.59765625 C-0.0962413 36.51995468 -0.09482635 35.44225311 -0.09336853 34.33189392 C-0.08779611 30.90873371 -0.07524868 27.48564025 -0.0625 24.0625 C-0.05748144 21.73372491 -0.05291915 19.40494878 -0.04882812 17.07617188 C-0.038689 11.38406852 -0.01910816 5.6921085 0 0 Z " fill="#FBFCFD" transform="translate(0,0)"/>
<path d="M0 0 C3.49489806 1.49781345 5.73431312 3.53901505 8.4375 6.1875 C14.08961865 11.40873965 20.12489547 14.64865594 27 18 C25.23603205 21.78220155 23.63470989 23.7875679 20 26 C15.11919792 26.94467137 15.11919792 26.94467137 12 26 C5.16929832 21.1692151 2.16191179 12.78088992 0 5 C-0.12890625 2.10546875 -0.12890625 2.10546875 0 0 Z " fill="#FADA05" transform="translate(13,45)"/>
<path d="M0 0 C4.88883247 4.55167161 7.07849751 7.99716373 7.68359375 14.73046875 C8.2715501 18.94778525 9.68410064 22.96126485 11 27 C1.2996139 27.76447876 1.2996139 27.76447876 -3.1875 25.125 C-5.78977237 20.63832351 -5.81891959 17.06706498 -5 12 C-3.69299219 7.81640805 -1.95713678 3.91427356 0 0 Z " fill="#429B70" transform="translate(7,36)"/>
<path d="M0 0 C5.22174778 -0.31330487 8.57691041 0.11984864 13 3 C15.30329042 5.82676552 15.46351078 9.03364437 15.40234375 12.62890625 C14.5884131 17.4255655 12.20953883 21.70718171 10 26 C9.360625 25.195625 8.72125 24.39125 8.0625 23.5625 C6.59396498 21.7249496 6.59396498 21.7249496 5 20 C4.67465441 18.15144551 4.39011757 16.29564858 4.125 14.4375 C3.30819007 9.25818251 2.03869289 4.81872865 0 0 Z " fill="#449C74" transform="translate(41,9)"/>
<path d="M0 0 C2.20541388 2.20541388 2.9973448 3.94667501 4.1875 6.8125 C4.55230469 7.66457031 4.91710937 8.51664063 5.29296875 9.39453125 C6.44217244 13.62944209 5.15212906 16.88869348 3.5 20.8125 C1.91122353 24.8813178 1.38764224 28.65840688 1 33 C0.67 33 0.34 33 0 33 C-1.20843455 26.38238221 -1.14798575 19.8368391 -1.125 13.125 C-1.12886719 11.97257812 -1.13273438 10.82015625 -1.13671875 9.6328125 C-1.13542969 8.5396875 -1.13414063 7.4465625 -1.1328125 6.3203125 C-1.13168457 5.32273926 -1.13055664 4.32516602 -1.12939453 3.29736328 C-1 1 -1 1 0 0 Z " fill="#F2F8F8" transform="translate(1,23)"/>
</svg>
